<svg width="22" height="51" viewBox="0 0 22 51" fill="none" xmlns="http://www.w3.org/2000/svg">
<g id="Group 4.1">
<g id="Group">
<circle id="Ellipse 2" cx="11" cy="11" r="11" fill="black" fill-opacity="0.5"/>
<path id="Union" d="M15.8995 6.70711L15.1924 6L10.9497 10.2426L6.70711 6L6 6.70711L10.2426 10.9497L6 15.1924L6.70711 15.8995L10.9497 11.6569L15.1924 15.8995L15.8995 15.1924L11.6569 10.9497L15.8995 6.70711Z" fill="white" fill-opacity="0.75"/>
</g>
<g id="Group 45">
<g id="Group 3">
<g id="Group 2">
<g id="Group_2">
<circle id="Ellipse 2_2" cx="11" cy="40" r="11" fill="black" fill-opacity="0.5"/>
</g>
</g>
<path id="i" d="M9.2566 37.7647V37.2193C9.40755 37.1551 9.60881 37.0909 9.86038 37.0267C10.1119 36.9519 10.3786 36.8877 10.6604 36.8342C10.9421 36.7807 11.2189 36.738 11.4906 36.7059C11.7723 36.6631 12.0189 36.6417 12.2302 36.6417L12.5019 36.8342L11.1434 43.7487H12.2V44.2941C12.0692 44.3904 11.9132 44.4813 11.7321 44.5668C11.561 44.6524 11.3748 44.7273 11.1736 44.7914C10.9824 44.8556 10.7862 44.9037 10.5849 44.9358C10.3836 44.9786 10.1925 45 10.0113 45C9.62893 45 9.36226 44.9251 9.21132 44.7754C9.07044 44.615 9 44.4439 9 44.262C9 44.0481 9.01509 43.8396 9.04528 43.6364C9.07547 43.4332 9.11572 43.2086 9.16604 42.9626L10.1925 37.9893L9.2566 37.7647ZM10.5245 34.1551C10.5245 33.7914 10.6403 33.508 10.8717 33.3048C11.1031 33.1016 11.395 33 11.7472 33C12.1296 33 12.4314 33.1016 12.6528 33.3048C12.8843 33.508 13 33.7914 13 34.1551C13 34.4973 12.8843 34.7701 12.6528 34.9733C12.4314 35.1765 12.1296 35.2781 11.7472 35.2781C11.395 35.2781 11.1031 35.1765 10.8717 34.9733C10.6403 34.7701 10.5245 34.4973 10.5245 34.1551Z" fill="#DCDCDC"/>
</g>
</g>
</g>
</svg>
